<?xml version="1.0" encoding="UTF-8" standalone="no"?><!DOCTYPE svg PUBLIC "-//W3C//DTD SVG 1.1//EN" "http://www.w3.org/Graphics/SVG/1.1/DTD/svg11.dtd"><svg width="100%" height="100%" viewBox="0 0 177 343" version="1.1" xmlns="http://www.w3.org/2000/svg" xmlns:xlink="http://www.w3.org/1999/xlink" xml:space="preserve" xmlns:serif="http://www.serif.com/" style="fill-rule:evenodd;clip-rule:evenodd;stroke-linejoin:round;stroke-miterlimit:1.5;"><path d="M119.966,0.825l50.531,0c2.691,0 4.876,2.185 4.876,4.876l-0,331.593c0,2.691 -2.185,4.876 -4.876,4.876l-50.531,0c-2.691,0 -4.876,-2.185 -4.876,-4.876l0,-331.593c0,-2.691 2.185,-4.876 4.876,-4.876Z" style="fill:#6300ee;fill-opacity:0.09;stroke:#6800ff;stroke-opacity:0.35;stroke-width:1.65px;"/><g transform="matrix(0,-1,1,0,-273.156411,321.155597)"><g transform="matrix(34.333355,0,0,34.333355,260.008654,430.14644)"></g><text x="64.486px" y="430.146px" style="font-family:'TimesNewRomanPS-BoldMT', 'Times New Roman', serif;font-weight:700;font-size:34.333px;">3D <tspan x="114.41px 134.159px 151.325px " y="430.146px 430.146px 430.146px ">Tok</tspan>enizer</text></g><path d="M90.036,160.674l24.75,12.375l-24.75,12.375l0,-24.75Z" style="fill:#6b8fca;"/><path d="M35.002,173.049l59.985,0" style="fill:none;stroke:#6b8fca;stroke-width:8.25px;"/></svg>