<?xml version="1.0" encoding="UTF-8" standalone="no"?><!DOCTYPE svg PUBLIC "-//W3C//DTD SVG 1.1//EN" "http://www.w3.org/Graphics/SVG/1.1/DTD/svg11.dtd"><svg width="100%" height="100%" viewBox="0 0 179 342" version="1.1" xmlns="http://www.w3.org/2000/svg" xmlns:xlink="http://www.w3.org/1999/xlink" xml:space="preserve" xmlns:serif="http://www.serif.com/" style="fill-rule:evenodd;clip-rule:evenodd;stroke-linejoin:round;stroke-miterlimit:1.5;"><path d="M177.655,5.911l0,329.838c0,2.807 -2.279,5.086 -5.086,5.086l-52.714,0c-2.807,0 -5.086,-2.279 -5.086,-5.086l0,-329.838c0,-2.807 2.279,-5.086 5.086,-5.086l52.714,0c2.807,0 5.086,2.279 5.086,5.086Z" style="fill:#d55000;fill-opacity:0.18;stroke:#573f30;stroke-opacity:0.43;stroke-width:1.65px;"/><g transform="matrix(0,-1,1,0,-290.161717,336.112405)"><g transform="matrix(34.788284,0,0,34.788284,209.453558,447.889666)"></g><text x="116.656px" y="447.89px" style="font-family:'TimesNewRomanPS-BoldMT', 'Times New Roman', serif;font-weight:700;font-size:34.788px;">L<tspan x="137.941px 146.638px 167.922px 176.619px " y="447.89px 447.89px 447.89px 447.89px "> L M</tspan></text></g><path d="M90.036,159.122l24.75,12.375l-24.75,12.375l0,-24.75Z" style="fill:#6b8fca;"/><path d="M35.002,171.497l59.985,0" style="fill:none;stroke:#6b8fca;stroke-width:8.25px;"/></svg>