<?xml version="1.0" encoding="utf-8" standalone="no"?>
<!DOCTYPE svg PUBLIC "-//W3C//DTD SVG 1.1//EN"
  "http://www.w3.org/Graphics/SVG/1.1/DTD/svg11.dtd">
<svg xmlns:xlink="http://www.w3.org/1999/xlink" width="526.151953pt" height="515.374559pt" viewBox="0 0 526.151953 515.374559" xmlns="http://www.w3.org/2000/svg" version="1.1">
 <metadata>
  <rdf:RDF xmlns:dc="http://purl.org/dc/elements/1.1/" xmlns:cc="http://creativecommons.org/ns#" xmlns:rdf="http://www.w3.org/1999/02/22-rdf-syntax-ns#">
   <cc:Work>
    <dc:type rdf:resource="http://purl.org/dc/dcmitype/StillImage"/>
    <dc:date>2026-06-15T14:47:55.675534</dc:date>
    <dc:format>image/svg+xml</dc:format>
    <dc:creator>
     <cc:Agent>
      <dc:title>Matplotlib v3.9.2, https://matplotlib.org/</dc:title>
     </cc:Agent>
    </dc:creator>
   </cc:Work>
  </rdf:RDF>
 </metadata>
 <defs>
  <style type="text/css">*{stroke-linejoin: round; stroke-linecap: butt}</style>
 </defs>
 <g id="figure_1">
  <g id="patch_1">
   <path d="M 0 515.374559 
L 526.151953 515.374559 
L 526.151953 0 
L 0 0 
z
" style="fill: #ffffff"/>
  </g>
  <g id="axes_1">
   <g id="patch_2">
    <path d="M 441.923977 223.120559 
C 441.923977 199.634454 437.297726 176.376723 428.309983 154.678392 
C 419.32224 132.980061 406.147794 113.263109 389.54061 96.655925 
C 372.933427 80.048741 353.216474 66.874295 331.518143 57.886552 
C 309.819812 48.898809 286.562081 44.272559 263.075977 44.272559 
C 239.589872 44.272559 216.332141 48.898809 194.63381 57.886552 
C 172.935479 66.874295 153.218526 80.048741 136.611343 96.655925 
C 120.004159 113.263109 106.829713 132.980061 97.84197 154.678392 
C 88.854227 176.376723 84.227977 199.634454 84.227977 223.120559 
C 84.227977 246.606663 88.854227 269.864394 97.84197 291.562725 
C 106.829713 313.261056 120.004159 332.978009 136.611343 349.585192 
C 153.218526 366.192376 172.935479 379.366822 194.63381 388.354565 
C 216.332141 397.342308 239.589872 401.968559 263.075977 401.968559 
C 286.562081 401.968559 309.819812 397.342308 331.518143 388.354565 
C 353.216474 379.366822 372.933427 366.192376 389.54061 349.585192 
C 406.147794 332.978009 419.32224 313.261056 428.309983 291.562725 
C 437.297726 269.864394 441.923977 246.606663 441.923977 223.120559 
M 263.075977 223.120559 
C 263.075977 223.120559 263.075977 223.120559 263.075977 223.120559 
C 263.075977 223.120559 263.075977 223.120559 263.075977 223.120559 
C 263.075977 223.120559 263.075977 223.120559 263.075977 223.120559 
C 263.075977 223.120559 263.075977 223.120559 263.075977 223.120559 
C 263.075977 223.120559 263.075977 223.120559 263.075977 223.120559 
C 263.075977 223.120559 263.075977 223.120559 263.075977 223.120559 
C 263.075977 223.120559 263.075977 223.120559 263.075977 223.120559 
C 263.075977 223.120559 263.075977 223.120559 263.075977 223.120559 
C 263.075977 223.120559 263.075977 223.120559 263.075977 223.120559 
C 263.075977 223.120559 263.075977 223.120559 263.075977 223.120559 
C 263.075977 223.120559 263.075977 223.120559 263.075977 223.120559 
C 263.075977 223.120559 263.075977 223.120559 263.075977 223.120559 
C 263.075977 223.120559 263.075977 223.120559 263.075977 223.120559 
C 263.075977 223.120559 263.075977 223.120559 263.075977 223.120559 
C 263.075977 223.120559 263.075977 223.120559 263.075977 223.120559 
C 263.075977 223.120559 263.075977 223.120559 263.075977 223.120559 
z
" style="fill: #ffffff"/>
   </g>
   <g id="matplotlib.axis_1">
    <g id="xtick_1">
     <g id="line2d_1">
      <path d="M 263.075977 223.120559 
L 263.075977 44.272559 
" clip-path="url(#pecc48c4df4)" style="fill: none; stroke: #d8dde6; stroke-opacity: 0.95; stroke-width: 0.9; stroke-linecap: square"/>
     </g>
     <g id="text_1">
      <!-- Object -->
      <g style="fill: #2f3440" transform="translate(242.719531 16.698047) scale(0.125 -0.125)">
       <defs>
        <path id="DejaVuSans-4f" d="M 2522 4238 
Q 1834 4238 1429 3725 
Q 1025 3213 1025 2328 
Q 1025 1447 1429 934 
Q 1834 422 2522 422 
Q 3209 422 3611 934 
Q 4013 1447 4013 2328 
Q 4013 3213 3611 3725 
Q 3209 4238 2522 4238 
z
M 2522 4750 
Q 3503 4750 4090 4092 
Q 4678 3434 4678 2328 
Q 4678 1225 4090 567 
Q 3503 -91 2522 -91 
Q 1538 -91 948 565 
Q 359 1222 359 2328 
Q 359 3434 948 4092 
Q 1538 4750 2522 4750 
z
" transform="scale(0.015625)"/>
        <path id="DejaVuSans-62" d="M 3116 1747 
Q 3116 2381 2855 2742 
Q 2594 3103 2138 3103 
Q 1681 3103 1420 2742 
Q 1159 2381 1159 1747 
Q 1159 1113 1420 752 
Q 1681 391 2138 391 
Q 2594 391 2855 752 
Q 3116 1113 3116 1747 
z
M 1159 2969 
Q 1341 3281 1617 3432 
Q 1894 3584 2278 3584 
Q 2916 3584 3314 3078 
Q 3713 2572 3713 1747 
Q 3713 922 3314 415 
Q 2916 -91 2278 -91 
Q 1894 -91 1617 61 
Q 1341 213 1159 525 
L 1159 0 
L 581 0 
L 581 4863 
L 1159 4863 
L 1159 2969 
z
" transform="scale(0.015625)"/>
        <path id="DejaVuSans-6a" d="M 603 3500 
L 1178 3500 
L 1178 -63 
Q 1178 -731 923 -1031 
Q 669 -1331 103 -1331 
L -116 -1331 
L -116 -844 
L 38 -844 
Q 366 -844 484 -692 
Q 603 -541 603 -63 
L 603 3500 
z
M 603 4863 
L 1178 4863 
L 1178 4134 
L 603 4134 
L 603 4863 
z
" transform="scale(0.015625)"/>
        <path id="DejaVuSans-65" d="M 3597 1894 
L 3597 1613 
L 953 1613 
Q 991 1019 1311 708 
Q 1631 397 2203 397 
Q 2534 397 2845 478 
Q 3156 559 3463 722 
L 3463 178 
Q 3153 47 2828 -22 
Q 2503 -91 2169 -91 
Q 1331 -91 842 396 
Q 353 884 353 1716 
Q 353 2575 817 3079 
Q 1281 3584 2069 3584 
Q 2775 3584 3186 3129 
Q 3597 2675 3597 1894 
z
M 3022 2063 
Q 3016 2534 2758 2815 
Q 2500 3097 2075 3097 
Q 1594 3097 1305 2825 
Q 1016 2553 972 2059 
L 3022 2063 
z
" transform="scale(0.015625)"/>
        <path id="DejaVuSans-63" d="M 3122 3366 
L 3122 2828 
Q 2878 2963 2633 3030 
Q 2388 3097 2138 3097 
Q 1578 3097 1268 2742 
Q 959 2388 959 1747 
Q 959 1106 1268 751 
Q 1578 397 2138 397 
Q 2388 397 2633 464 
Q 2878 531 3122 666 
L 3122 134 
Q 2881 22 2623 -34 
Q 2366 -91 2075 -91 
Q 1284 -91 818 406 
Q 353 903 353 1747 
Q 353 2603 823 3093 
Q 1294 3584 2113 3584 
Q 2378 3584 2631 3529 
Q 2884 3475 3122 3366 
z
" transform="scale(0.015625)"/>
        <path id="DejaVuSans-74" d="M 1172 4494 
L 1172 3500 
L 2356 3500 
L 2356 3053 
L 1172 3053 
L 1172 1153 
Q 1172 725 1289 603 
Q 1406 481 1766 481 
L 2356 481 
L 2356 0 
L 1766 0 
Q 1100 0 847 248 
Q 594 497 594 1153 
L 594 3053 
L 172 3053 
L 172 3500 
L 594 3500 
L 594 4494 
L 1172 4494 
z
" transform="scale(0.015625)"/>
       </defs>
       <use xlink:href="#DejaVuSans-4f"/>
       <use xlink:href="#DejaVuSans-62" x="78.710938"/>
       <use xlink:href="#DejaVuSans-6a" x="142.1875"/>
       <use xlink:href="#DejaVuSans-65" x="169.970703"/>
       <use xlink:href="#DejaVuSans-63" x="231.494141"/>
       <use xlink:href="#DejaVuSans-74" x="286.474609"/>
      </g>
      <!-- R@5 -->
      <g style="fill: #2f3440" transform="translate(248.506641 29.745508) scale(0.125 -0.125)">
       <defs>
        <path id="DejaVuSans-52" d="M 2841 2188 
Q 3044 2119 3236 1894 
Q 3428 1669 3622 1275 
L 4263 0 
L 3584 0 
L 2988 1197 
Q 2756 1666 2539 1819 
Q 2322 1972 1947 1972 
L 1259 1972 
L 1259 0 
L 628 0 
L 628 4666 
L 2053 4666 
Q 2853 4666 3247 4331 
Q 3641 3997 3641 3322 
Q 3641 2881 3436 2590 
Q 3231 2300 2841 2188 
z
M 1259 4147 
L 1259 2491 
L 2053 2491 
Q 2509 2491 2742 2702 
Q 2975 2913 2975 3322 
Q 2975 3731 2742 3939 
Q 2509 4147 2053 4147 
L 1259 4147 
z
" transform="scale(0.015625)"/>
        <path id="DejaVuSans-40" d="M 2381 1678 
Q 2381 1231 2603 976 
Q 2825 722 3213 722 
Q 3597 722 3817 978 
Q 4038 1234 4038 1678 
Q 4038 2116 3813 2373 
Q 3588 2631 3206 2631 
Q 2828 2631 2604 2375 
Q 2381 2119 2381 1678 
z
M 4084 744 
Q 3897 503 3655 389 
Q 3413 275 3091 275 
Q 2553 275 2217 664 
Q 1881 1053 1881 1678 
Q 1881 2303 2218 2693 
Q 2556 3084 3091 3084 
Q 3413 3084 3656 2967 
Q 3900 2850 4084 2613 
L 4084 3022 
L 4531 3022 
L 4531 722 
Q 4988 791 5245 1139 
Q 5503 1488 5503 2041 
Q 5503 2375 5404 2669 
Q 5306 2963 5106 3213 
Q 4781 3622 4314 3839 
Q 3847 4056 3297 4056 
Q 2913 4056 2559 3954 
Q 2206 3853 1906 3653 
Q 1416 3334 1139 2817 
Q 863 2300 863 1697 
Q 863 1200 1042 765 
Q 1222 331 1563 0 
Q 1891 -325 2322 -495 
Q 2753 -666 3244 -666 
Q 3647 -666 4036 -530 
Q 4425 -394 4750 -141 
L 5031 -488 
Q 4641 -791 4180 -952 
Q 3719 -1113 3244 -1113 
Q 2666 -1113 2153 -908 
Q 1641 -703 1241 -313 
Q 841 78 631 592 
Q 422 1106 422 1697 
Q 422 2266 634 2781 
Q 847 3297 1241 3688 
Q 1644 4084 2172 4295 
Q 2700 4506 3291 4506 
Q 3953 4506 4520 4234 
Q 5088 3963 5472 3463 
Q 5706 3156 5829 2797 
Q 5953 2438 5953 2053 
Q 5953 1231 5456 756 
Q 4959 281 4084 263 
L 4084 744 
z
" transform="scale(0.015625)"/>
        <path id="DejaVuSans-35" d="M 691 4666 
L 3169 4666 
L 3169 4134 
L 1269 4134 
L 1269 2991 
Q 1406 3038 1543 3061 
Q 1681 3084 1819 3084 
Q 2600 3084 3056 2656 
Q 3513 2228 3513 1497 
Q 3513 744 3044 326 
Q 2575 -91 1722 -91 
Q 1428 -91 1123 -41 
Q 819 9 494 109 
L 494 744 
Q 775 591 1075 516 
Q 1375 441 1709 441 
Q 2250 441 2565 725 
Q 2881 1009 2881 1497 
Q 2881 1984 2565 2268 
Q 2250 2553 1709 2553 
Q 1456 2553 1204 2497 
Q 953 2441 691 2322 
L 691 4666 
z
" transform="scale(0.015625)"/>
       </defs>
       <use xlink:href="#DejaVuSans-52"/>
       <use xlink:href="#DejaVuSans-40" x="69.482422"/>
       <use xlink:href="#DejaVuSans-35" x="169.482422"/>
      </g>
     </g>
    </g>
    <g id="xtick_2">
     <g id="line2d_2">
      <path d="M 263.075977 223.120559 
L 417.962888 133.696559 
" clip-path="url(#pecc48c4df4)" style="fill: none; stroke: #d8dde6; stroke-opacity: 0.95; stroke-width: 0.9; stroke-linecap: square"/>
     </g>
     <g id="text_2">
      <!-- Object -->
      <g style="fill: #2f3440" transform="translate(418.824065 118.372047) scale(0.125 -0.125)">
       <use xlink:href="#DejaVuSans-4f"/>
       <use xlink:href="#DejaVuSans-62" x="78.710938"/>
       <use xlink:href="#DejaVuSans-6a" x="142.1875"/>
       <use xlink:href="#DejaVuSans-65" x="169.970703"/>
       <use xlink:href="#DejaVuSans-63" x="231.494141"/>
       <use xlink:href="#DejaVuSans-74" x="286.474609"/>
      </g>
      <!-- R@10 -->
      <g style="fill: #2f3440" transform="translate(420.634612 131.419508) scale(0.125 -0.125)">
       <defs>
        <path id="DejaVuSans-31" d="M 794 531 
L 1825 531 
L 1825 4091 
L 703 3866 
L 703 4441 
L 1819 4666 
L 2450 4666 
L 2450 531 
L 3481 531 
L 3481 0 
L 794 0 
L 794 531 
z
" transform="scale(0.015625)"/>
        <path id="DejaVuSans-30" d="M 2034 4250 
Q 1547 4250 1301 3770 
Q 1056 3291 1056 2328 
Q 1056 1369 1301 889 
Q 1547 409 2034 409 
Q 2525 409 2770 889 
Q 3016 1369 3016 2328 
Q 3016 3291 2770 3770 
Q 2525 4250 2034 4250 
z
M 2034 4750 
Q 2819 4750 3233 4129 
Q 3647 3509 3647 2328 
Q 3647 1150 3233 529 
Q 2819 -91 2034 -91 
Q 1250 -91 836 529 
Q 422 1150 422 2328 
Q 422 3509 836 4129 
Q 1250 4750 2034 4750 
z
" transform="scale(0.015625)"/>
       </defs>
       <use xlink:href="#DejaVuSans-52"/>
       <use xlink:href="#DejaVuSans-40" x="69.482422"/>
       <use xlink:href="#DejaVuSans-31" x="169.482422"/>
       <use xlink:href="#DejaVuSans-30" x="233.105469"/>
      </g>
     </g>
    </g>
    <g id="xtick_3">
     <g id="line2d_3">
      <path d="M 263.075977 223.120559 
L 417.962888 312.544559 
" clip-path="url(#pecc48c4df4)" style="fill: none; stroke: #d8dde6; stroke-opacity: 0.95; stroke-width: 0.9; stroke-linecap: square"/>
     </g>
     <g id="text_3">
      <!-- Predicate -->
      <g style="fill: #2f3440" transform="translate(409.980315 321.720047) scale(0.125 -0.125)">
       <defs>
        <path id="DejaVuSans-50" d="M 1259 4147 
L 1259 2394 
L 2053 2394 
Q 2494 2394 2734 2622 
Q 2975 2850 2975 3272 
Q 2975 3691 2734 3919 
Q 2494 4147 2053 4147 
L 1259 4147 
z
M 628 4666 
L 2053 4666 
Q 2838 4666 3239 4311 
Q 3641 3956 3641 3272 
Q 3641 2581 3239 2228 
Q 2838 1875 2053 1875 
L 1259 1875 
L 1259 0 
L 628 0 
L 628 4666 
z
" transform="scale(0.015625)"/>
        <path id="DejaVuSans-72" d="M 2631 2963 
Q 2534 3019 2420 3045 
Q 2306 3072 2169 3072 
Q 1681 3072 1420 2755 
Q 1159 2438 1159 1844 
L 1159 0 
L 581 0 
L 581 3500 
L 1159 3500 
L 1159 2956 
Q 1341 3275 1631 3429 
Q 1922 3584 2338 3584 
Q 2397 3584 2469 3576 
Q 2541 3569 2628 3553 
L 2631 2963 
z
" transform="scale(0.015625)"/>
        <path id="DejaVuSans-64" d="M 2906 2969 
L 2906 4863 
L 3481 4863 
L 3481 0 
L 2906 0 
L 2906 525 
Q 2725 213 2448 61 
Q 2172 -91 1784 -91 
Q 1150 -91 751 415 
Q 353 922 353 1747 
Q 353 2572 751 3078 
Q 1150 3584 1784 3584 
Q 2172 3584 2448 3432 
Q 2725 3281 2906 2969 
z
M 947 1747 
Q 947 1113 1208 752 
Q 1469 391 1925 391 
Q 2381 391 2643 752 
Q 2906 1113 2906 1747 
Q 2906 2381 2643 2742 
Q 2381 3103 1925 3103 
Q 1469 3103 1208 2742 
Q 947 2381 947 1747 
z
" transform="scale(0.015625)"/>
        <path id="DejaVuSans-69" d="M 603 3500 
L 1178 3500 
L 1178 0 
L 603 0 
L 603 3500 
z
M 603 4863 
L 1178 4863 
L 1178 4134 
L 603 4134 
L 603 4863 
z
" transform="scale(0.015625)"/>
        <path id="DejaVuSans-61" d="M 2194 1759 
Q 1497 1759 1228 1600 
Q 959 1441 959 1056 
Q 959 750 1161 570 
Q 1363 391 1709 391 
Q 2188 391 2477 730 
Q 2766 1069 2766 1631 
L 2766 1759 
L 2194 1759 
z
M 3341 1997 
L 3341 0 
L 2766 0 
L 2766 531 
Q 2569 213 2275 61 
Q 1981 -91 1556 -91 
Q 1019 -91 701 211 
Q 384 513 384 1019 
Q 384 1609 779 1909 
Q 1175 2209 1959 2209 
L 2766 2209 
L 2766 2266 
Q 2766 2663 2505 2880 
Q 2244 3097 1772 3097 
Q 1472 3097 1187 3025 
Q 903 2953 641 2809 
L 641 3341 
Q 956 3463 1253 3523 
Q 1550 3584 1831 3584 
Q 2591 3584 2966 3190 
Q 3341 2797 3341 1997 
z
" transform="scale(0.015625)"/>
       </defs>
       <use xlink:href="#DejaVuSans-50"/>
       <use xlink:href="#DejaVuSans-72" x="58.552734"/>
       <use xlink:href="#DejaVuSans-65" x="97.416016"/>
       <use xlink:href="#DejaVuSans-64" x="158.939453"/>
       <use xlink:href="#DejaVuSans-69" x="222.416016"/>
       <use xlink:href="#DejaVuSans-63" x="250.199219"/>
       <use xlink:href="#DejaVuSans-61" x="305.179688"/>
       <use xlink:href="#DejaVuSans-74" x="366.458984"/>
       <use xlink:href="#DejaVuSans-65" x="405.667969"/>
      </g>
      <!-- R@3 -->
      <g style="fill: #2f3440" transform="translate(424.611174 334.767508) scale(0.125 -0.125)">
       <defs>
        <path id="DejaVuSans-33" d="M 2597 2516 
Q 3050 2419 3304 2112 
Q 3559 1806 3559 1356 
Q 3559 666 3084 287 
Q 2609 -91 1734 -91 
Q 1441 -91 1130 -33 
Q 819 25 488 141 
L 488 750 
Q 750 597 1062 519 
Q 1375 441 1716 441 
Q 2309 441 2620 675 
Q 2931 909 2931 1356 
Q 2931 1769 2642 2001 
Q 2353 2234 1838 2234 
L 1294 2234 
L 1294 2753 
L 1863 2753 
Q 2328 2753 2575 2939 
Q 2822 3125 2822 3475 
Q 2822 3834 2567 4026 
Q 2313 4219 1838 4219 
Q 1578 4219 1281 4162 
Q 984 4106 628 3988 
L 628 4550 
Q 988 4650 1302 4700 
Q 1616 4750 1894 4750 
Q 2613 4750 3031 4423 
Q 3450 4097 3450 3541 
Q 3450 3153 3228 2886 
Q 3006 2619 2597 2516 
z
" transform="scale(0.015625)"/>
       </defs>
       <use xlink:href="#DejaVuSans-52"/>
       <use xlink:href="#DejaVuSans-40" x="69.482422"/>
       <use xlink:href="#DejaVuSans-33" x="169.482422"/>
      </g>
     </g>
    </g>
    <g id="xtick_4">
     <g id="line2d_4">
      <path d="M 263.075977 223.120559 
L 263.075977 401.968559 
" clip-path="url(#pecc48c4df4)" style="fill: none; stroke: #d8dde6; stroke-opacity: 0.95; stroke-width: 0.9; stroke-linecap: square"/>
     </g>
     <g id="text_4">
      <!-- Predicate -->
      <g style="fill: #2f3440" transform="translate(233.875781 423.394047) scale(0.125 -0.125)">
       <use xlink:href="#DejaVuSans-50"/>
       <use xlink:href="#DejaVuSans-72" x="58.552734"/>
       <use xlink:href="#DejaVuSans-65" x="97.416016"/>
       <use xlink:href="#DejaVuSans-64" x="158.939453"/>
       <use xlink:href="#DejaVuSans-69" x="222.416016"/>
       <use xlink:href="#DejaVuSans-63" x="250.199219"/>
       <use xlink:href="#DejaVuSans-61" x="305.179688"/>
       <use xlink:href="#DejaVuSans-74" x="366.458984"/>
       <use xlink:href="#DejaVuSans-65" x="405.667969"/>
      </g>
      <!-- R@5 -->
      <g style="fill: #2f3440" transform="translate(248.506641 436.441508) scale(0.125 -0.125)">
       <use xlink:href="#DejaVuSans-52"/>
       <use xlink:href="#DejaVuSans-40" x="69.482422"/>
       <use xlink:href="#DejaVuSans-35" x="169.482422"/>
      </g>
     </g>
    </g>
    <g id="xtick_5">
     <g id="line2d_5">
      <path d="M 263.075977 223.120559 
L 108.189065 312.544559 
" clip-path="url(#pecc48c4df4)" style="fill: none; stroke: #d8dde6; stroke-opacity: 0.95; stroke-width: 0.9; stroke-linecap: square"/>
     </g>
     <g id="text_5">
      <!-- Triplet -->
      <g style="fill: #2f3440" transform="translate(67.770271 321.720047) scale(0.125 -0.125)">
       <defs>
        <path id="DejaVuSans-54" d="M -19 4666 
L 3928 4666 
L 3928 4134 
L 2272 4134 
L 2272 0 
L 1638 0 
L 1638 4134 
L -19 4134 
L -19 4666 
z
" transform="scale(0.015625)"/>
        <path id="DejaVuSans-70" d="M 1159 525 
L 1159 -1331 
L 581 -1331 
L 581 3500 
L 1159 3500 
L 1159 2969 
Q 1341 3281 1617 3432 
Q 1894 3584 2278 3584 
Q 2916 3584 3314 3078 
Q 3713 2572 3713 1747 
Q 3713 922 3314 415 
Q 2916 -91 2278 -91 
Q 1894 -91 1617 61 
Q 1341 213 1159 525 
z
M 3116 1747 
Q 3116 2381 2855 2742 
Q 2594 3103 2138 3103 
Q 1681 3103 1420 2742 
Q 1159 2381 1159 1747 
Q 1159 1113 1420 752 
Q 1681 391 2138 391 
Q 2594 391 2855 752 
Q 3116 1113 3116 1747 
z
" transform="scale(0.015625)"/>
        <path id="DejaVuSans-6c" d="M 603 4863 
L 1178 4863 
L 1178 0 
L 603 0 
L 603 4863 
z
" transform="scale(0.015625)"/>
       </defs>
       <use xlink:href="#DejaVuSans-54"/>
       <use xlink:href="#DejaVuSans-72" x="46.333984"/>
       <use xlink:href="#DejaVuSans-69" x="87.447266"/>
       <use xlink:href="#DejaVuSans-70" x="115.230469"/>
       <use xlink:href="#DejaVuSans-6c" x="178.707031"/>
       <use xlink:href="#DejaVuSans-65" x="206.490234"/>
       <use xlink:href="#DejaVuSans-74" x="268.013672"/>
      </g>
      <!-- R@50 -->
      <g style="fill: #2f3440" transform="translate(68.425544 334.767508) scale(0.125 -0.125)">
       <use xlink:href="#DejaVuSans-52"/>
       <use xlink:href="#DejaVuSans-40" x="69.482422"/>
       <use xlink:href="#DejaVuSans-35" x="169.482422"/>
       <use xlink:href="#DejaVuSans-30" x="233.105469"/>
      </g>
     </g>
    </g>
    <g id="xtick_6">
     <g id="line2d_6">
      <path d="M 263.075977 223.120559 
L 108.189065 133.696559 
" clip-path="url(#pecc48c4df4)" style="fill: none; stroke: #d8dde6; stroke-opacity: 0.95; stroke-width: 0.9; stroke-linecap: square"/>
     </g>
     <g id="text_6">
      <!-- Triplet -->
      <g style="fill: #2f3440" transform="translate(67.770271 118.372047) scale(0.125 -0.125)">
       <use xlink:href="#DejaVuSans-54"/>
       <use xlink:href="#DejaVuSans-72" x="46.333984"/>
       <use xlink:href="#DejaVuSans-69" x="87.447266"/>
       <use xlink:href="#DejaVuSans-70" x="115.230469"/>
       <use xlink:href="#DejaVuSans-6c" x="178.707031"/>
       <use xlink:href="#DejaVuSans-65" x="206.490234"/>
       <use xlink:href="#DejaVuSans-74" x="268.013672"/>
      </g>
      <!-- R@100 -->
      <g style="fill: #2f3440" transform="translate(64.448982 131.419508) scale(0.125 -0.125)">
       <use xlink:href="#DejaVuSans-52"/>
       <use xlink:href="#DejaVuSans-40" x="69.482422"/>
       <use xlink:href="#DejaVuSans-31" x="169.482422"/>
       <use xlink:href="#DejaVuSans-30" x="233.105469"/>
       <use xlink:href="#DejaVuSans-30" x="296.728516"/>
      </g>
     </g>
    </g>
   </g>
   <g id="matplotlib.axis_2">
    <g id="ytick_1">
     <g id="line2d_7">
      <path d="M 263.075977 151.581359 
C 272.470418 151.581359 281.773511 153.431859 290.452843 157.026956 
C 299.132176 160.622053 307.018957 165.891832 313.66183 172.534705 
C 320.304703 179.177579 325.574482 187.06436 329.169579 195.743692 
C 332.764676 204.423024 334.615177 213.726117 334.615177 223.120559 
C 334.615177 232.515 332.764676 241.818093 329.169579 250.497425 
C 325.574482 259.176758 320.304703 267.063539 313.66183 273.706412 
C 307.018957 280.349285 299.132176 285.619064 290.452843 289.214161 
C 281.773511 292.809258 272.470418 294.659759 263.075977 294.659759 
C 253.681535 294.659759 244.378442 292.809258 235.69911 289.214161 
C 227.019778 285.619064 219.132997 280.349285 212.490123 273.706412 
C 205.84725 267.063539 200.577471 259.176758 196.982374 250.497425 
C 193.387277 241.818093 191.536777 232.515 191.536777 223.120559 
C 191.536777 213.726117 193.387277 204.423024 196.982374 195.743692 
C 200.577471 187.06436 205.84725 179.177579 212.490123 172.534705 
C 219.132997 165.891832 227.019778 160.622053 235.69911 157.026956 
C 244.378442 153.431859 253.681535 151.581359 263.075977 151.581359 
" clip-path="url(#pecc48c4df4)" style="fill: none; stroke: #d8dde6; stroke-opacity: 0.95; stroke-width: 0.9; stroke-linecap: square"/>
     </g>
     <g id="text_7">
      <!-- 0.4 -->
      <g style="fill: #69707d" transform="translate(333.528335 233.359538) scale(0.105 -0.105)">
       <defs>
        <path id="DejaVuSans-2e" d="M 684 794 
L 1344 794 
L 1344 0 
L 684 0 
L 684 794 
z
" transform="scale(0.015625)"/>
        <path id="DejaVuSans-34" d="M 2419 4116 
L 825 1625 
L 2419 1625 
L 2419 4116 
z
M 2253 4666 
L 3047 4666 
L 3047 1625 
L 3713 1625 
L 3713 1100 
L 3047 1100 
L 3047 0 
L 2419 0 
L 2419 1100 
L 313 1100 
L 313 1709 
L 2253 4666 
z
" transform="scale(0.015625)"/>
       </defs>
       <use xlink:href="#DejaVuSans-30"/>
       <use xlink:href="#DejaVuSans-2e" x="63.623047"/>
       <use xlink:href="#DejaVuSans-34" x="95.410156"/>
      </g>
     </g>
    </g>
    <g id="ytick_2">
     <g id="line2d_8">
      <path d="M 263.075977 115.811759 
C 277.167639 115.811759 291.122278 118.587509 304.141276 123.980155 
C 317.160275 129.3728 328.990447 137.277468 338.954757 147.241778 
C 348.919067 157.206089 356.823735 169.03626 362.216381 182.055259 
C 367.609026 195.074257 370.384777 209.028896 370.384777 223.120559 
C 370.384777 237.212221 367.609026 251.16686 362.216381 264.185859 
C 356.823735 277.204857 348.919067 289.035029 338.954757 298.999339 
C 328.990447 308.963649 317.160275 316.868317 304.141276 322.260963 
C 291.122278 327.653608 277.167639 330.429359 263.075977 330.429359 
C 248.984314 330.429359 235.029675 327.653608 222.010677 322.260963 
C 208.991678 316.868317 197.161507 308.963649 187.197196 298.999339 
C 177.232886 289.035029 169.328218 277.204857 163.935573 264.185859 
C 158.542927 251.16686 155.767177 237.212221 155.767177 223.120559 
C 155.767177 209.028896 158.542927 195.074257 163.935573 182.055259 
C 169.328218 169.03626 177.232886 157.206089 187.197196 147.241778 
C 197.161507 137.277468 208.991678 129.3728 222.010677 123.980155 
C 235.029675 118.587509 248.984314 115.811759 263.075977 115.811759 
" clip-path="url(#pecc48c4df4)" style="fill: none; stroke: #d8dde6; stroke-opacity: 0.95; stroke-width: 0.9; stroke-linecap: square"/>
     </g>
     <g id="text_8">
      <!-- 0.6 -->
      <g style="fill: #69707d" transform="translate(368.754515 239.570864) scale(0.105 -0.105)">
       <defs>
        <path id="DejaVuSans-36" d="M 2113 2584 
Q 1688 2584 1439 2293 
Q 1191 2003 1191 1497 
Q 1191 994 1439 701 
Q 1688 409 2113 409 
Q 2538 409 2786 701 
Q 3034 994 3034 1497 
Q 3034 2003 2786 2293 
Q 2538 2584 2113 2584 
z
M 3366 4563 
L 3366 3988 
Q 3128 4100 2886 4159 
Q 2644 4219 2406 4219 
Q 1781 4219 1451 3797 
Q 1122 3375 1075 2522 
Q 1259 2794 1537 2939 
Q 1816 3084 2150 3084 
Q 2853 3084 3261 2657 
Q 3669 2231 3669 1497 
Q 3669 778 3244 343 
Q 2819 -91 2113 -91 
Q 1303 -91 875 529 
Q 447 1150 447 2328 
Q 447 3434 972 4092 
Q 1497 4750 2381 4750 
Q 2619 4750 2861 4703 
Q 3103 4656 3366 4563 
z
" transform="scale(0.015625)"/>
       </defs>
       <use xlink:href="#DejaVuSans-30"/>
       <use xlink:href="#DejaVuSans-2e" x="63.623047"/>
       <use xlink:href="#DejaVuSans-36" x="95.410156"/>
      </g>
     </g>
    </g>
    <g id="ytick_3">
     <g id="line2d_9">
      <path d="M 263.075977 80.042159 
C 281.86486 80.042159 300.471045 83.743159 317.82971 90.933353 
C 335.188375 98.123548 350.961937 108.663105 364.247683 121.948852 
C 377.53343 135.234599 388.072988 151.008161 395.263182 168.366825 
C 402.453376 185.72549 406.154377 204.331675 406.154377 223.120559 
C 406.154377 241.909442 402.453376 260.515627 395.263182 277.874292 
C 388.072988 295.232957 377.53343 311.006519 364.247683 324.292265 
C 350.961937 337.578012 335.188375 348.11757 317.82971 355.307764 
C 300.471045 362.497958 281.86486 366.198959 263.075977 366.198959 
C 244.287093 366.198959 225.680908 362.497958 208.322243 355.307764 
C 190.963579 348.11757 175.190016 337.578012 161.90427 324.292265 
C 148.618523 311.006519 138.078966 295.232957 130.888771 277.874292 
C 123.698577 260.515627 119.997577 241.909442 119.997577 223.120559 
C 119.997577 204.331675 123.698577 185.72549 130.888771 168.366825 
C 138.078966 151.008161 148.618523 135.234599 161.90427 121.948852 
C 175.190016 108.663105 190.963579 98.123548 208.322243 90.933353 
C 225.680908 83.743159 244.287093 80.042159 263.075977 80.042159 
" clip-path="url(#pecc48c4df4)" style="fill: none; stroke: #d8dde6; stroke-opacity: 0.95; stroke-width: 0.9; stroke-linecap: square"/>
     </g>
     <g id="text_9">
      <!-- 0.8 -->
      <g style="fill: #69707d" transform="translate(403.980694 245.78219) scale(0.105 -0.105)">
       <defs>
        <path id="DejaVuSans-38" d="M 2034 2216 
Q 1584 2216 1326 1975 
Q 1069 1734 1069 1313 
Q 1069 891 1326 650 
Q 1584 409 2034 409 
Q 2484 409 2743 651 
Q 3003 894 3003 1313 
Q 3003 1734 2745 1975 
Q 2488 2216 2034 2216 
z
M 1403 2484 
Q 997 2584 770 2862 
Q 544 3141 544 3541 
Q 544 4100 942 4425 
Q 1341 4750 2034 4750 
Q 2731 4750 3128 4425 
Q 3525 4100 3525 3541 
Q 3525 3141 3298 2862 
Q 3072 2584 2669 2484 
Q 3125 2378 3379 2068 
Q 3634 1759 3634 1313 
Q 3634 634 3220 271 
Q 2806 -91 2034 -91 
Q 1263 -91 848 271 
Q 434 634 434 1313 
Q 434 1759 690 2068 
Q 947 2378 1403 2484 
z
M 1172 3481 
Q 1172 3119 1398 2916 
Q 1625 2713 2034 2713 
Q 2441 2713 2670 2916 
Q 2900 3119 2900 3481 
Q 2900 3844 2670 4047 
Q 2441 4250 2034 4250 
Q 1625 4250 1398 4047 
Q 1172 3844 1172 3481 
z
" transform="scale(0.015625)"/>
       </defs>
       <use xlink:href="#DejaVuSans-30"/>
       <use xlink:href="#DejaVuSans-2e" x="63.623047"/>
       <use xlink:href="#DejaVuSans-38" x="95.410156"/>
      </g>
     </g>
    </g>
    <g id="ytick_4">
     <g id="line2d_10">
      <path d="M 263.075977 44.272559 
C 286.562081 44.272559 309.819812 48.898809 331.518143 57.886552 
C 353.216474 66.874295 372.933427 80.048741 389.54061 96.655925 
C 406.147794 113.263109 419.32224 132.980061 428.309983 154.678392 
C 437.297726 176.376723 441.923977 199.634454 441.923977 223.120559 
C 441.923977 246.606663 437.297726 269.864394 428.309983 291.562725 
C 419.32224 313.261056 406.147794 332.978009 389.54061 349.585192 
C 372.933427 366.192376 353.216474 379.366822 331.518143 388.354565 
C 309.819812 397.342308 286.562081 401.968559 263.075977 401.968559 
C 239.589872 401.968559 216.332141 397.342308 194.63381 388.354565 
C 172.935479 379.366822 153.218526 366.192376 136.611343 349.585192 
C 120.004159 332.978009 106.829713 313.261056 97.84197 291.562725 
C 88.854227 269.864394 84.227977 246.606663 84.227977 223.120559 
C 84.227977 199.634454 88.854227 176.376723 97.84197 154.678392 
C 106.829713 132.980061 120.004159 113.263109 136.611343 96.655925 
C 153.218526 80.048741 172.935479 66.874295 194.63381 57.886552 
C 216.332141 48.898809 239.589872 44.272559 263.075977 44.272559 
" clip-path="url(#pecc48c4df4)" style="fill: none; stroke: #d8dde6; stroke-opacity: 0.95; stroke-width: 0.9; stroke-linecap: square"/>
     </g>
     <g id="text_10">
      <!-- 1.0 -->
      <g style="fill: #69707d" transform="translate(439.206874 251.993516) scale(0.105 -0.105)">
       <use xlink:href="#DejaVuSans-31"/>
       <use xlink:href="#DejaVuSans-2e" x="63.623047"/>
       <use xlink:href="#DejaVuSans-30" x="95.410156"/>
      </g>
     </g>
    </g>
   </g>
   <g id="line2d_11">
    <path d="M 263.075977 176.620079 
L 311.090919 195.399119 
L 352.910385 274.986479 
L 263.075977 328.640879 
L 198.023474 260.678639 
L 193.376866 182.879759 
L 263.075977 176.620079 
" clip-path="url(#pecc48c4df4)" style="fill: none; stroke: #c7cfdd; stroke-opacity: 0.82; stroke-width: 2; stroke-linecap: round"/>
   </g>
   <g id="line2d_12">
    <path d="M 263.075977 158.735279 
L 335.872825 181.091279 
L 383.887767 292.871279 
L 263.075977 364.410479 
L 165.497222 279.457679 
L 160.850615 164.100719 
L 263.075977 158.735279 
" clip-path="url(#pecc48c4df4)" style="fill: none; stroke: #ef8b7d; stroke-opacity: 0.82; stroke-width: 2; stroke-linecap: round"/>
   </g>
   <g id="line2d_13">
    <path d="M 263.075977 156.946799 
L 334.323956 181.985519 
L 377.692291 289.294319 
L 263.075977 364.410479 
L 156.204008 284.823119 
L 153.106269 159.629519 
L 263.075977 156.946799 
" clip-path="url(#pecc48c4df4)" style="fill: none; stroke: #b18ad9; stroke-opacity: 0.82; stroke-width: 2; stroke-linecap: round"/>
   </g>
   <g id="line2d_14">
    <path d="M 263.075977 122.965679 
L 357.556993 168.571919 
L 352.910385 274.986479 
L 263.075977 339.371759 
L 177.888175 272.303759 
L 176.339306 173.043119 
L 263.075977 122.965679 
" clip-path="url(#pecc48c4df4)" style="fill: none; stroke: #7fd9e7; stroke-opacity: 0.82; stroke-width: 2; stroke-linecap: round"/>
   </g>
   <g id="line2d_15">
    <path d="M 263.075977 99.715439 
L 386.985506 151.581359 
L 380.790029 291.082799 
L 263.075977 369.775919 
L 150.008531 288.400079 
L 148.459662 156.946799 
L 263.075977 99.715439 
" clip-path="url(#pecc48c4df4)" style="fill: none; stroke: #6f93e6; stroke-opacity: 0.82; stroke-width: 2; stroke-linecap: round"/>
   </g>
   <g id="line2d_16">
    <path d="M 263.075977 101.503919 
L 385.436637 152.475599 
L 385.436637 293.765519 
L 263.075977 378.718319 
" clip-path="url(#pecc48c4df4)" style="fill: none; stroke-dasharray: 7.77,3.36; stroke-dashoffset: 0; stroke: #7ac65a; stroke-opacity: 0.95; stroke-width: 2.1"/>
   </g>
   <g id="PathCollection_1">
    <defs>
     <path id="m8af12d3a5c" d="M 0 2.12132 
C 0.562581 2.12132 1.102195 1.897805 1.5 1.5 
C 1.897805 1.102195 2.12132 0.562581 2.12132 0 
C 2.12132 -0.562581 1.897805 -1.102195 1.5 -1.5 
C 1.102195 -1.897805 0.562581 -2.12132 0 -2.12132 
C -0.562581 -2.12132 -1.102195 -1.897805 -1.5 -1.5 
C -1.897805 -1.102195 -2.12132 -0.562581 -2.12132 0 
C -2.12132 0.562581 -1.897805 1.102195 -1.5 1.5 
C -1.102195 1.897805 -0.562581 2.12132 0 2.12132 
z
" style="stroke: #7ac65a"/>
    </defs>
    <g clip-path="url(#pecc48c4df4)">
     <use xlink:href="#m8af12d3a5c" x="263.075977" y="101.503919" style="fill: #7ac65a; stroke: #7ac65a"/>
     <use xlink:href="#m8af12d3a5c" x="385.436637" y="152.475599" style="fill: #7ac65a; stroke: #7ac65a"/>
     <use xlink:href="#m8af12d3a5c" x="385.436637" y="293.765519" style="fill: #7ac65a; stroke: #7ac65a"/>
     <use xlink:href="#m8af12d3a5c" x="263.075977" y="378.718319" style="fill: #7ac65a; stroke: #7ac65a"/>
    </g>
   </g>
   <g id="patch_3">
    <path d="M 263.075977 99.715439 
L 380.790029 155.158319 
L 394.729851 299.130959 
L 263.075977 378.718319 
L 148.459662 289.294319 
L 140.715317 152.475599 
z
" clip-path="url(#pecc48c4df4)" style="fill: #7fd39a; opacity: 0.18; stroke: #7fd39a; stroke-linejoin: miter"/>
   </g>
   <g id="line2d_17">
    <path d="M 263.075977 99.715439 
L 380.790029 155.158319 
L 394.729851 299.130959 
L 263.075977 378.718319 
L 148.459662 289.294319 
L 140.715317 152.475599 
L 263.075977 99.715439 
" clip-path="url(#pecc48c4df4)" style="fill: none; stroke: #33a35c; stroke-width: 3; stroke-linecap: round"/>
   </g>
   <g id="PathCollection_2">
    <defs>
     <path id="mbc1de213d3" d="M 0 2.915476 
C 0.773193 2.915476 1.514823 2.608283 2.061553 2.061553 
C 2.608283 1.514823 2.915476 0.773193 2.915476 0 
C 2.915476 -0.773193 2.608283 -1.514823 2.061553 -2.061553 
C 1.514823 -2.608283 0.773193 -2.915476 0 -2.915476 
C -0.773193 -2.915476 -1.514823 -2.608283 -2.061553 -2.061553 
C -2.608283 -1.514823 -2.915476 -0.773193 -2.915476 0 
C -2.915476 0.773193 -2.608283 1.514823 -2.061553 2.061553 
C -1.514823 2.608283 -0.773193 2.915476 0 2.915476 
z
" style="stroke: #ffffff"/>
    </defs>
    <g clip-path="url(#pecc48c4df4)">
     <use xlink:href="#mbc1de213d3" x="263.075977" y="99.715439" style="fill: #33a35c; stroke: #ffffff"/>
     <use xlink:href="#mbc1de213d3" x="380.790029" y="155.158319" style="fill: #33a35c; stroke: #ffffff"/>
     <use xlink:href="#mbc1de213d3" x="394.729851" y="299.130959" style="fill: #33a35c; stroke: #ffffff"/>
     <use xlink:href="#mbc1de213d3" x="263.075977" y="378.718319" style="fill: #33a35c; stroke: #ffffff"/>
     <use xlink:href="#mbc1de213d3" x="148.459662" y="289.294319" style="fill: #33a35c; stroke: #ffffff"/>
     <use xlink:href="#mbc1de213d3" x="140.715317" y="152.475599" style="fill: #33a35c; stroke: #ffffff"/>
    </g>
   </g>
  </g>
  <g id="legend_1">
   <g id="line2d_18">
    <path d="M 11.4 482.703855 
L 24 482.703855 
L 36.6 482.703855 
" style="fill: none; stroke: #c7cfdd; stroke-width: 2; stroke-linecap: square"/>
   </g>
   <g id="text_11">
    <!-- Qwen3-VL-32B -->
    <g transform="translate(42.9 486.378855) scale(0.105 -0.105)">
     <defs>
      <path id="DejaVuSans-51" d="M 2522 4238 
Q 1834 4238 1429 3725 
Q 1025 3213 1025 2328 
Q 1025 1447 1429 934 
Q 1834 422 2522 422 
Q 3209 422 3611 934 
Q 4013 1447 4013 2328 
Q 4013 3213 3611 3725 
Q 3209 4238 2522 4238 
z
M 3406 84 
L 4238 -825 
L 3475 -825 
L 2784 -78 
Q 2681 -84 2626 -87 
Q 2572 -91 2522 -91 
Q 1538 -91 948 567 
Q 359 1225 359 2328 
Q 359 3434 948 4092 
Q 1538 4750 2522 4750 
Q 3503 4750 4090 4092 
Q 4678 3434 4678 2328 
Q 4678 1516 4351 937 
Q 4025 359 3406 84 
z
" transform="scale(0.015625)"/>
      <path id="DejaVuSans-77" d="M 269 3500 
L 844 3500 
L 1563 769 
L 2278 3500 
L 2956 3500 
L 3675 769 
L 4391 3500 
L 4966 3500 
L 4050 0 
L 3372 0 
L 2619 2869 
L 1863 0 
L 1184 0 
L 269 3500 
z
" transform="scale(0.015625)"/>
      <path id="DejaVuSans-6e" d="M 3513 2113 
L 3513 0 
L 2938 0 
L 2938 2094 
Q 2938 2591 2744 2837 
Q 2550 3084 2163 3084 
Q 1697 3084 1428 2787 
Q 1159 2491 1159 1978 
L 1159 0 
L 581 0 
L 581 3500 
L 1159 3500 
L 1159 2956 
Q 1366 3272 1645 3428 
Q 1925 3584 2291 3584 
Q 2894 3584 3203 3211 
Q 3513 2838 3513 2113 
z
" transform="scale(0.015625)"/>
      <path id="DejaVuSans-2d" d="M 313 2009 
L 1997 2009 
L 1997 1497 
L 313 1497 
L 313 2009 
z
" transform="scale(0.015625)"/>
      <path id="DejaVuSans-56" d="M 1831 0 
L 50 4666 
L 709 4666 
L 2188 738 
L 3669 4666 
L 4325 4666 
L 2547 0 
L 1831 0 
z
" transform="scale(0.015625)"/>
      <path id="DejaVuSans-4c" d="M 628 4666 
L 1259 4666 
L 1259 531 
L 3531 531 
L 3531 0 
L 628 0 
L 628 4666 
z
" transform="scale(0.015625)"/>
      <path id="DejaVuSans-32" d="M 1228 531 
L 3431 531 
L 3431 0 
L 469 0 
L 469 531 
Q 828 903 1448 1529 
Q 2069 2156 2228 2338 
Q 2531 2678 2651 2914 
Q 2772 3150 2772 3378 
Q 2772 3750 2511 3984 
Q 2250 4219 1831 4219 
Q 1534 4219 1204 4116 
Q 875 4013 500 3803 
L 500 4441 
Q 881 4594 1212 4672 
Q 1544 4750 1819 4750 
Q 2544 4750 2975 4387 
Q 3406 4025 3406 3419 
Q 3406 3131 3298 2873 
Q 3191 2616 2906 2266 
Q 2828 2175 2409 1742 
Q 1991 1309 1228 531 
z
" transform="scale(0.015625)"/>
      <path id="DejaVuSans-42" d="M 1259 2228 
L 1259 519 
L 2272 519 
Q 2781 519 3026 730 
Q 3272 941 3272 1375 
Q 3272 1813 3026 2020 
Q 2781 2228 2272 2228 
L 1259 2228 
z
M 1259 4147 
L 1259 2741 
L 2194 2741 
Q 2656 2741 2882 2914 
Q 3109 3088 3109 3444 
Q 3109 3797 2882 3972 
Q 2656 4147 2194 4147 
L 1259 4147 
z
M 628 4666 
L 2241 4666 
Q 2963 4666 3353 4366 
Q 3744 4066 3744 3513 
Q 3744 3084 3544 2831 
Q 3344 2578 2956 2516 
Q 3422 2416 3680 2098 
Q 3938 1781 3938 1306 
Q 3938 681 3513 340 
Q 3088 0 2303 0 
L 628 0 
L 628 4666 
z
" transform="scale(0.015625)"/>
     </defs>
     <use xlink:href="#DejaVuSans-51"/>
     <use xlink:href="#DejaVuSans-77" x="78.710938"/>
     <use xlink:href="#DejaVuSans-65" x="160.498047"/>
     <use xlink:href="#DejaVuSans-6e" x="222.021484"/>
     <use xlink:href="#DejaVuSans-33" x="285.400391"/>
     <use xlink:href="#DejaVuSans-2d" x="349.023438"/>
     <use xlink:href="#DejaVuSans-56" x="379.232422"/>
     <use xlink:href="#DejaVuSans-4c" x="447.640625"/>
     <use xlink:href="#DejaVuSans-2d" x="501.603516"/>
     <use xlink:href="#DejaVuSans-33" x="537.6875"/>
     <use xlink:href="#DejaVuSans-32" x="601.310547"/>
     <use xlink:href="#DejaVuSans-42" x="664.933594"/>
    </g>
   </g>
   <g id="line2d_19">
    <path d="M 11.4 498.115887 
L 24 498.115887 
L 36.6 498.115887 
" style="fill: none; stroke: #ef8b7d; stroke-width: 2; stroke-linecap: square"/>
   </g>
   <g id="text_12">
    <!-- GPT-5.4 -->
    <g transform="translate(42.9 501.790887) scale(0.105 -0.105)">
     <defs>
      <path id="DejaVuSans-47" d="M 3809 666 
L 3809 1919 
L 2778 1919 
L 2778 2438 
L 4434 2438 
L 4434 434 
Q 4069 175 3628 42 
Q 3188 -91 2688 -91 
Q 1594 -91 976 548 
Q 359 1188 359 2328 
Q 359 3472 976 4111 
Q 1594 4750 2688 4750 
Q 3144 4750 3555 4637 
Q 3966 4525 4313 4306 
L 4313 3634 
Q 3963 3931 3569 4081 
Q 3175 4231 2741 4231 
Q 1884 4231 1454 3753 
Q 1025 3275 1025 2328 
Q 1025 1384 1454 906 
Q 1884 428 2741 428 
Q 3075 428 3337 486 
Q 3600 544 3809 666 
z
" transform="scale(0.015625)"/>
     </defs>
     <use xlink:href="#DejaVuSans-47"/>
     <use xlink:href="#DejaVuSans-50" x="77.490234"/>
     <use xlink:href="#DejaVuSans-54" x="137.792969"/>
     <use xlink:href="#DejaVuSans-2d" x="189.751953"/>
     <use xlink:href="#DejaVuSans-35" x="225.835938"/>
     <use xlink:href="#DejaVuSans-2e" x="289.458984"/>
     <use xlink:href="#DejaVuSans-34" x="321.246094"/>
    </g>
   </g>
   <g id="line2d_20">
    <path d="M 136.722422 482.703855 
L 149.322422 482.703855 
L 161.922422 482.703855 
" style="fill: none; stroke: #b18ad9; stroke-width: 2; stroke-linecap: square"/>
   </g>
   <g id="text_13">
    <!-- ConceptGraphs -->
    <g transform="translate(168.222422 486.378855) scale(0.105 -0.105)">
     <defs>
      <path id="DejaVuSans-43" d="M 4122 4306 
L 4122 3641 
Q 3803 3938 3442 4084 
Q 3081 4231 2675 4231 
Q 1875 4231 1450 3742 
Q 1025 3253 1025 2328 
Q 1025 1406 1450 917 
Q 1875 428 2675 428 
Q 3081 428 3442 575 
Q 3803 722 4122 1019 
L 4122 359 
Q 3791 134 3420 21 
Q 3050 -91 2638 -91 
Q 1578 -91 968 557 
Q 359 1206 359 2328 
Q 359 3453 968 4101 
Q 1578 4750 2638 4750 
Q 3056 4750 3426 4639 
Q 3797 4528 4122 4306 
z
" transform="scale(0.015625)"/>
      <path id="DejaVuSans-6f" d="M 1959 3097 
Q 1497 3097 1228 2736 
Q 959 2375 959 1747 
Q 959 1119 1226 758 
Q 1494 397 1959 397 
Q 2419 397 2687 759 
Q 2956 1122 2956 1747 
Q 2956 2369 2687 2733 
Q 2419 3097 1959 3097 
z
M 1959 3584 
Q 2709 3584 3137 3096 
Q 3566 2609 3566 1747 
Q 3566 888 3137 398 
Q 2709 -91 1959 -91 
Q 1206 -91 779 398 
Q 353 888 353 1747 
Q 353 2609 779 3096 
Q 1206 3584 1959 3584 
z
" transform="scale(0.015625)"/>
      <path id="DejaVuSans-68" d="M 3513 2113 
L 3513 0 
L 2938 0 
L 2938 2094 
Q 2938 2591 2744 2837 
Q 2550 3084 2163 3084 
Q 1697 3084 1428 2787 
Q 1159 2491 1159 1978 
L 1159 0 
L 581 0 
L 581 4863 
L 1159 4863 
L 1159 2956 
Q 1366 3272 1645 3428 
Q 1925 3584 2291 3584 
Q 2894 3584 3203 3211 
Q 3513 2838 3513 2113 
z
" transform="scale(0.015625)"/>
      <path id="DejaVuSans-73" d="M 2834 3397 
L 2834 2853 
Q 2591 2978 2328 3040 
Q 2066 3103 1784 3103 
Q 1356 3103 1142 2972 
Q 928 2841 928 2578 
Q 928 2378 1081 2264 
Q 1234 2150 1697 2047 
L 1894 2003 
Q 2506 1872 2764 1633 
Q 3022 1394 3022 966 
Q 3022 478 2636 193 
Q 2250 -91 1575 -91 
Q 1294 -91 989 -36 
Q 684 19 347 128 
L 347 722 
Q 666 556 975 473 
Q 1284 391 1588 391 
Q 1994 391 2212 530 
Q 2431 669 2431 922 
Q 2431 1156 2273 1281 
Q 2116 1406 1581 1522 
L 1381 1569 
Q 847 1681 609 1914 
Q 372 2147 372 2553 
Q 372 3047 722 3315 
Q 1072 3584 1716 3584 
Q 2034 3584 2315 3537 
Q 2597 3491 2834 3397 
z
" transform="scale(0.015625)"/>
     </defs>
     <use xlink:href="#DejaVuSans-43"/>
     <use xlink:href="#DejaVuSans-6f" x="69.824219"/>
     <use xlink:href="#DejaVuSans-6e" x="131.005859"/>
     <use xlink:href="#DejaVuSans-63" x="194.384766"/>
     <use xlink:href="#DejaVuSans-65" x="249.365234"/>
     <use xlink:href="#DejaVuSans-70" x="310.888672"/>
     <use xlink:href="#DejaVuSans-74" x="374.365234"/>
     <use xlink:href="#DejaVuSans-47" x="413.574219"/>
     <use xlink:href="#DejaVuSans-72" x="491.064453"/>
     <use xlink:href="#DejaVuSans-61" x="532.177734"/>
     <use xlink:href="#DejaVuSans-70" x="593.457031"/>
     <use xlink:href="#DejaVuSans-68" x="656.933594"/>
     <use xlink:href="#DejaVuSans-73" x="720.3125"/>
    </g>
   </g>
   <g id="line2d_21">
    <path d="M 136.722422 498.115887 
L 149.322422 498.115887 
L 161.922422 498.115887 
" style="fill: none; stroke: #7fd9e7; stroke-width: 2; stroke-linecap: square"/>
   </g>
   <g id="text_14">
    <!-- Open3DSG -->
    <g transform="translate(168.222422 501.790887) scale(0.105 -0.105)">
     <defs>
      <path id="DejaVuSans-44" d="M 1259 4147 
L 1259 519 
L 2022 519 
Q 2988 519 3436 956 
Q 3884 1394 3884 2338 
Q 3884 3275 3436 3711 
Q 2988 4147 2022 4147 
L 1259 4147 
z
M 628 4666 
L 1925 4666 
Q 3281 4666 3915 4102 
Q 4550 3538 4550 2338 
Q 4550 1131 3912 565 
Q 3275 0 1925 0 
L 628 0 
L 628 4666 
z
" transform="scale(0.015625)"/>
      <path id="DejaVuSans-53" d="M 3425 4513 
L 3425 3897 
Q 3066 4069 2747 4153 
Q 2428 4238 2131 4238 
Q 1616 4238 1336 4038 
Q 1056 3838 1056 3469 
Q 1056 3159 1242 3001 
Q 1428 2844 1947 2747 
L 2328 2669 
Q 3034 2534 3370 2195 
Q 3706 1856 3706 1288 
Q 3706 609 3251 259 
Q 2797 -91 1919 -91 
Q 1588 -91 1214 -16 
Q 841 59 441 206 
L 441 856 
Q 825 641 1194 531 
Q 1563 422 1919 422 
Q 2459 422 2753 634 
Q 3047 847 3047 1241 
Q 3047 1584 2836 1778 
Q 2625 1972 2144 2069 
L 1759 2144 
Q 1053 2284 737 2584 
Q 422 2884 422 3419 
Q 422 4038 858 4394 
Q 1294 4750 2059 4750 
Q 2388 4750 2728 4690 
Q 3069 4631 3425 4513 
z
" transform="scale(0.015625)"/>
     </defs>
     <use xlink:href="#DejaVuSans-4f"/>
     <use xlink:href="#DejaVuSans-70" x="78.710938"/>
     <use xlink:href="#DejaVuSans-65" x="142.1875"/>
     <use xlink:href="#DejaVuSans-6e" x="203.710938"/>
     <use xlink:href="#DejaVuSans-33" x="267.089844"/>
     <use xlink:href="#DejaVuSans-44" x="330.712891"/>
     <use xlink:href="#DejaVuSans-53" x="407.714844"/>
     <use xlink:href="#DejaVuSans-47" x="471.191406"/>
    </g>
   </g>
   <g id="line2d_22">
    <path d="M 266.126719 482.703855 
L 278.726719 482.703855 
L 291.326719 482.703855 
" style="fill: none; stroke: #6f93e6; stroke-width: 2; stroke-linecap: square"/>
   </g>
   <g id="text_15">
    <!-- RelationField -->
    <g transform="translate(297.626719 486.378855) scale(0.105 -0.105)">
     <defs>
      <path id="DejaVuSans-46" d="M 628 4666 
L 3309 4666 
L 3309 4134 
L 1259 4134 
L 1259 2759 
L 3109 2759 
L 3109 2228 
L 1259 2228 
L 1259 0 
L 628 0 
L 628 4666 
z
" transform="scale(0.015625)"/>
     </defs>
     <use xlink:href="#DejaVuSans-52"/>
     <use xlink:href="#DejaVuSans-65" x="64.982422"/>
     <use xlink:href="#DejaVuSans-6c" x="126.505859"/>
     <use xlink:href="#DejaVuSans-61" x="154.289062"/>
     <use xlink:href="#DejaVuSans-74" x="215.568359"/>
     <use xlink:href="#DejaVuSans-69" x="254.777344"/>
     <use xlink:href="#DejaVuSans-6f" x="282.560547"/>
     <use xlink:href="#DejaVuSans-6e" x="343.742188"/>
     <use xlink:href="#DejaVuSans-46" x="407.121094"/>
     <use xlink:href="#DejaVuSans-69" x="457.390625"/>
     <use xlink:href="#DejaVuSans-65" x="485.173828"/>
     <use xlink:href="#DejaVuSans-6c" x="546.697266"/>
     <use xlink:href="#DejaVuSans-64" x="574.480469"/>
    </g>
   </g>
   <g id="line2d_23">
    <path d="M 266.126719 498.115887 
L 278.726719 498.115887 
L 291.326719 498.115887 
" style="fill: none; stroke-dasharray: 7.4,3.2; stroke-dashoffset: 0; stroke: #7ac65a; stroke-width: 2"/>
   </g>
   <g id="text_16">
    <!-- ReLaGS -->
    <g transform="translate(297.626719 501.790887) scale(0.105 -0.105)">
     <use xlink:href="#DejaVuSans-52"/>
     <use xlink:href="#DejaVuSans-65" x="64.982422"/>
     <use xlink:href="#DejaVuSans-4c" x="126.505859"/>
     <use xlink:href="#DejaVuSans-61" x="182.21875"/>
     <use xlink:href="#DejaVuSans-47" x="243.498047"/>
     <use xlink:href="#DejaVuSans-53" x="320.988281"/>
    </g>
   </g>
   <g id="line2d_24">
    <path d="M 381.413437 482.703855 
L 394.013437 482.703855 
L 406.613437 482.703855 
" style="fill: none; stroke: #33a35c; stroke-width: 3; stroke-linecap: square"/>
   </g>
   <g id="text_17">
    <!-- GraphWrit3R (ours) -->
    <g transform="translate(412.913437 486.378855) scale(0.105 -0.105)">
     <defs>
      <path id="DejaVuSans-57" d="M 213 4666 
L 850 4666 
L 1831 722 
L 2809 4666 
L 3519 4666 
L 4500 722 
L 5478 4666 
L 6119 4666 
L 4947 0 
L 4153 0 
L 3169 4050 
L 2175 0 
L 1381 0 
L 213 4666 
z
" transform="scale(0.015625)"/>
      <path id="DejaVuSans-20" transform="scale(0.015625)"/>
      <path id="DejaVuSans-28" d="M 1984 4856 
Q 1566 4138 1362 3434 
Q 1159 2731 1159 2009 
Q 1159 1288 1364 580 
Q 1569 -128 1984 -844 
L 1484 -844 
Q 1016 -109 783 600 
Q 550 1309 550 2009 
Q 550 2706 781 3412 
Q 1013 4119 1484 4856 
L 1984 4856 
z
" transform="scale(0.015625)"/>
      <path id="DejaVuSans-75" d="M 544 1381 
L 544 3500 
L 1119 3500 
L 1119 1403 
Q 1119 906 1312 657 
Q 1506 409 1894 409 
Q 2359 409 2629 706 
Q 2900 1003 2900 1516 
L 2900 3500 
L 3475 3500 
L 3475 0 
L 2900 0 
L 2900 538 
Q 2691 219 2414 64 
Q 2138 -91 1772 -91 
Q 1169 -91 856 284 
Q 544 659 544 1381 
z
M 1991 3584 
L 1991 3584 
z
" transform="scale(0.015625)"/>
      <path id="DejaVuSans-29" d="M 513 4856 
L 1013 4856 
Q 1481 4119 1714 3412 
Q 1947 2706 1947 2009 
Q 1947 1309 1714 600 
Q 1481 -109 1013 -844 
L 513 -844 
Q 928 -128 1133 580 
Q 1338 1288 1338 2009 
Q 1338 2731 1133 3434 
Q 928 4138 513 4856 
z
" transform="scale(0.015625)"/>
     </defs>
     <use xlink:href="#DejaVuSans-47"/>
     <use xlink:href="#DejaVuSans-72" x="77.490234"/>
     <use xlink:href="#DejaVuSans-61" x="118.603516"/>
     <use xlink:href="#DejaVuSans-70" x="179.882812"/>
     <use xlink:href="#DejaVuSans-68" x="243.359375"/>
     <use xlink:href="#DejaVuSans-57" x="306.738281"/>
     <use xlink:href="#DejaVuSans-72" x="401.115234"/>
     <use xlink:href="#DejaVuSans-69" x="442.228516"/>
     <use xlink:href="#DejaVuSans-74" x="470.011719"/>
     <use xlink:href="#DejaVuSans-33" x="509.220703"/>
     <use xlink:href="#DejaVuSans-52" x="572.84375"/>
     <use xlink:href="#DejaVuSans-20" x="642.326172"/>
     <use xlink:href="#DejaVuSans-28" x="674.113281"/>
     <use xlink:href="#DejaVuSans-6f" x="713.126953"/>
     <use xlink:href="#DejaVuSans-75" x="774.308594"/>
     <use xlink:href="#DejaVuSans-72" x="837.6875"/>
     <use xlink:href="#DejaVuSans-73" x="878.800781"/>
     <use xlink:href="#DejaVuSans-29" x="930.900391"/>
    </g>
   </g>
  </g>
 </g>
 <defs>
  <clipPath id="pecc48c4df4">
   <path d="M 441.923977 223.120559 
C 441.923977 199.634454 437.297726 176.376723 428.309983 154.678392 
C 419.32224 132.980061 406.147794 113.263109 389.54061 96.655925 
C 372.933427 80.048741 353.216474 66.874295 331.518143 57.886552 
C 309.819812 48.898809 286.562081 44.272559 263.075977 44.272559 
C 239.589872 44.272559 216.332141 48.898809 194.63381 57.886552 
C 172.935479 66.874295 153.218526 80.048741 136.611343 96.655925 
C 120.004159 113.263109 106.829713 132.980061 97.84197 154.678392 
C 88.854227 176.376723 84.227977 199.634454 84.227977 223.120559 
C 84.227977 246.606663 88.854227 269.864394 97.84197 291.562725 
C 106.829713 313.261056 120.004159 332.978009 136.611343 349.585192 
C 153.218526 366.192376 172.935479 379.366822 194.63381 388.354565 
C 216.332141 397.342308 239.589872 401.968559 263.075977 401.968559 
C 286.562081 401.968559 309.819812 397.342308 331.518143 388.354565 
C 353.216474 379.366822 372.933427 366.192376 389.54061 349.585192 
C 406.147794 332.978009 419.32224 313.261056 428.309983 291.562725 
C 437.297726 269.864394 441.923977 246.606663 441.923977 223.120559 
M 263.075977 223.120559 
C 263.075977 223.120559 263.075977 223.120559 263.075977 223.120559 
C 263.075977 223.120559 263.075977 223.120559 263.075977 223.120559 
C 263.075977 223.120559 263.075977 223.120559 263.075977 223.120559 
C 263.075977 223.120559 263.075977 223.120559 263.075977 223.120559 
C 263.075977 223.120559 263.075977 223.120559 263.075977 223.120559 
C 263.075977 223.120559 263.075977 223.120559 263.075977 223.120559 
C 263.075977 223.120559 263.075977 223.120559 263.075977 223.120559 
C 263.075977 223.120559 263.075977 223.120559 263.075977 223.120559 
C 263.075977 223.120559 263.075977 223.120559 263.075977 223.120559 
C 263.075977 223.120559 263.075977 223.120559 263.075977 223.120559 
C 263.075977 223.120559 263.075977 223.120559 263.075977 223.120559 
C 263.075977 223.120559 263.075977 223.120559 263.075977 223.120559 
C 263.075977 223.120559 263.075977 223.120559 263.075977 223.120559 
C 263.075977 223.120559 263.075977 223.120559 263.075977 223.120559 
C 263.075977 223.120559 263.075977 223.120559 263.075977 223.120559 
C 263.075977 223.120559 263.075977 223.120559 263.075977 223.120559 
z
"/>
  </clipPath>
 </defs>
</svg>
